<?xml version="1.0" encoding="utf-8"?>
<!-- Generator: Adobe Illustrator 25.3.1, SVG Export Plug-In . SVG Version: 6.00 Build 0)  -->
<svg version="1.1" id="Layer_1" xmlns="http://www.w3.org/2000/svg" xmlns:xlink="http://www.w3.org/1999/xlink" x="0px" y="0px"
	 viewBox="0 0 128 128" style="enable-background:new 0 0 128 128;" xml:space="preserve">
<style type="text/css">
	.st0{clip-path:url(#SVGID_2_);}
	.st1{fill:#9D9D9D;}
	.st2{font-family:'NotoSans';}
	.st3{font-size:110px;}
	.st4{enable-background:new    ;}
</style>
<g>
	<defs>
		<rect id="SVGID_1_" y="0" width="128" height="128"/>
	</defs>
	<clipPath id="SVGID_2_">
		<use xlink:href="#SVGID_1_"  style="overflow:visible;"/>
	</clipPath>
	<g class="st0">
		<text transform="matrix(1 0 0 1 32 90.773)" class="st1 st2 st3">η</text>
		<g class="st4">
			<path d="M78.5,114.2V50.1c0-4.7-1.1-8.3-3.2-10.7c-2.1-2.4-5.5-3.6-10-3.6c-6.1,0-10.4,1.7-13.2,5.1c-2.7,3.4-4.1,8.8-4.1,16.2
				v30.6h-9.7v-59h7.8l1.5,8.1h0.5c1.8-2.9,4.4-5.1,7.7-6.7c3.3-1.6,6.9-2.4,10.9-2.4c7.2,0,12.6,1.8,16.1,5.3
				c3.5,3.5,5.3,9,5.3,16.4v64.8H78.5z"/>
		</g>
	</g>
</g>
</svg>
